REM DIRINDEX 1\2,1\3,1\4,1\5,1\6
REM DIRNAME cjc091,folder01,folder02,folder03,folder04,folder05
TITLE ""
FILE "CD2-19.mp3" MP3
  TRACK 01 AUDIO
    TITLE "6:cjc091_1862"
    INDEX 01 00:00:00
  TRACK 02 AUDIO
    TITLE "0:"
    INDEX 01 00:02:06
  TRACK 03 AUDIO
    TITLE "2:cjc091_1863"
    INDEX 01 00:03:29
  TRACK 04 AUDIO
    TITLE "0:"
    INDEX 01 00:04:66
  TRACK 05 AUDIO
    TITLE "3:cjc091_1864"
    INDEX 01 00:04:70
  TRACK 06 AUDIO
    TITLE "0:"
    INDEX 01 00:06:28
  TRACK 07 AUDIO
    TITLE "4:cjc091_1865"
    INDEX 01 00:06:45
  TRACK 08 AUDIO
    TITLE "0:"
    INDEX 01 00:09:45
  TRACK 09 AUDIO
    TITLE "2:cjc091_1866"
    INDEX 01 00:10:57
  TRACK 10 AUDIO
    TITLE "0:"
    INDEX 01 00:12:09
  TRACK 11 AUDIO
    TITLE "3:cjc091_1867"
    INDEX 01 00:12:12
  TRACK 12 AUDIO
    TITLE "0:"
    INDEX 01 00:13:55
  TRACK 13 AUDIO
    TITLE "4:cjc091_1868"
    INDEX 01 00:13:73
  TRACK 14 AUDIO
    TITLE "0:"
    INDEX 01 00:16:22
  TRACK 15 AUDIO
    TITLE "2:cjc091_1869"
    INDEX 01 00:17:33
  TRACK 16 AUDIO
    TITLE "0:"
    INDEX 01 00:18:54
  TRACK 17 AUDIO
    TITLE "3:cjc091_1870"
    INDEX 01 00:18:58
  TRACK 18 AUDIO
    TITLE "0:"
    INDEX 01 00:19:48
  TRACK 19 AUDIO
    TITLE "4:cjc091_1871"
    INDEX 01 00:19:71
  TRACK 20 AUDIO
    TITLE "0:"
    INDEX 01 00:24:43
  TRACK 21 AUDIO
    TITLE "2:cjc091_1872"
    INDEX 01 00:25:56
  TRACK 22 AUDIO
    TITLE "0:"
    INDEX 01 00:27:18
  TRACK 23 AUDIO
    TITLE "3:cjc091_1873"
    INDEX 01 00:27:26
  TRACK 24 AUDIO
    TITLE "0:"
    INDEX 01 00:28:62
  TRACK 25 AUDIO
    TITLE "4:cjc091_1874"
    INDEX 01 00:29:05
  TRACK 26 AUDIO
    TITLE "0:"
    INDEX 01 00:31:69
  TRACK 27 AUDIO
    TITLE "2:cjc091_1875"
    INDEX 01 00:33:11
  TRACK 28 AUDIO
    TITLE "0:"
    INDEX 01 00:34:73
  TRACK 29 AUDIO
    TITLE "3:cjc091_1876"
    INDEX 01 00:35:17
  TRACK 30 AUDIO
    TITLE "0:"
    INDEX 01 00:37:42
  TRACK 31 AUDIO
    TITLE "4:cjc091_1877"
    INDEX 01 00:37:59
  TRACK 32 AUDIO
    TITLE "0:"
    INDEX 01 00:43:19
  TRACK 33 AUDIO
    TITLE "2:cjc091_1878"
    INDEX 01 00:44:30
  TRACK 34 AUDIO
    TITLE "0:"
    INDEX 01 00:45:69
  TRACK 35 AUDIO
    TITLE "3:cjc091_1879"
    INDEX 01 00:46:11
  TRACK 36 AUDIO
    TITLE "0:"
    INDEX 01 00:48:28
  TRACK 37 AUDIO
    TITLE "4:cjc091_1880"
    INDEX 01 00:48:44
  TRACK 38 AUDIO
    TITLE "0:"
    INDEX 01 00:51:42
  TRACK 39 AUDIO
    TITLE "2:cjc091_1881"
    INDEX 01 00:52:49
  TRACK 40 AUDIO
    TITLE "0:"
    INDEX 01 00:54:07
  TRACK 41 AUDIO
    TITLE "3:cjc091_1882"
    INDEX 01 00:54:17
  TRACK 42 AUDIO
    TITLE "0:"
    INDEX 01 00:56:37
  TRACK 43 AUDIO
    TITLE "4:cjc091_1883"
    INDEX 01 00:56:59
  TRACK 44 AUDIO
    TITLE "0:"
    INDEX 01 01:00:25
  TRACK 45 AUDIO
    TITLE "2:cjc091_1884"
    INDEX 01 01:01:34
  TRACK 46 AUDIO
    TITLE "0:"
    INDEX 01 01:02:63
  TRACK 47 AUDIO
    TITLE "3:cjc091_1885"
    INDEX 01 01:03:00
  TRACK 48 AUDIO
    TITLE "0:"
    INDEX 01 01:04:03
  TRACK 49 AUDIO
    TITLE "4:cjc091_1886"
    INDEX 01 01:04:17
  TRACK 50 AUDIO
    TITLE "0:"
    INDEX 01 01:09:09
  TRACK 51 AUDIO
    TITLE "2:cjc091_1887"
    INDEX 01 01:10:10
  TRACK 52 AUDIO
    TITLE "0:"
    INDEX 01 01:11:21
  TRACK 53 AUDIO
    TITLE "3:cjc091_1888"
    INDEX 01 01:11:37
  TRACK 54 AUDIO
    TITLE "0:"
    INDEX 01 01:13:04
  TRACK 55 AUDIO
    TITLE "4:cjc091_1889"
    INDEX 01 01:13:22
  TRACK 56 AUDIO
    TITLE "0:"
    INDEX 01 01:17:00
  TRACK 57 AUDIO
    TITLE "2:cjc091_1890"
    INDEX 01 01:18:11
  TRACK 58 AUDIO
    TITLE "0:"
    INDEX 01 01:19:42
  TRACK 59 AUDIO
    TITLE "3:cjc091_1891"
    INDEX 01 01:19:50
  TRACK 60 AUDIO
    TITLE "0:"
    INDEX 01 01:21:45
  TRACK 61 AUDIO
    TITLE "4:cjc091_1892"
    INDEX 01 01:21:65
  TRACK 62 AUDIO
    TITLE "0:"
    INDEX 01 01:25:13
  TRACK 63 AUDIO
    TITLE "2:cjc091_1893"
    INDEX 01 01:26:19
  TRACK 64 AUDIO
    TITLE "0:"
    INDEX 01 01:27:28
  TRACK 65 AUDIO
    TITLE "3:cjc091_1894"
    INDEX 01 01:27:34
  TRACK 66 AUDIO
    TITLE "0:"
    INDEX 01 01:28:39
  TRACK 67 AUDIO
    TITLE "4:cjc091_1895"
    INDEX 01 01:28:61
  TRACK 68 AUDIO
    TITLE "0:"
    INDEX 01 01:32:55
  TRACK 69 AUDIO
    TITLE "2:cjc091_1896"
    INDEX 01 01:33:60
  TRACK 70 AUDIO
    TITLE "0:"
    INDEX 01 01:35:06
  TRACK 71 AUDIO
    TITLE "3:cjc091_1897"
    INDEX 01 01:35:12
  TRACK 72 AUDIO
    TITLE "0:"
    INDEX 01 01:36:58
  TRACK 73 AUDIO
    TITLE "4:cjc091_1898"
    INDEX 01 01:36:74
  TRACK 74 AUDIO
    TITLE "0:"
    INDEX 01 01:40:03
  TRACK 75 AUDIO
    TITLE "2:cjc091_1899"
    INDEX 01 01:41:10
  TRACK 76 AUDIO
    TITLE "0:"
    INDEX 01 01:42:49
  TRACK 77 AUDIO
    TITLE "3:cjc091_1900"
    INDEX 01 01:42:57
  TRACK 78 AUDIO
    TITLE "0:"
    INDEX 01 01:44:32
  TRACK 79 AUDIO
    TITLE "4:cjc091_1901"
    INDEX 01 01:44:48
  TRACK 80 AUDIO
    TITLE "0:"
    INDEX 01 01:48:09
  TRACK 81 AUDIO
    TITLE "2:cjc091_1902"
    INDEX 01 01:49:14
  TRACK 82 AUDIO
    TITLE "0:"
    INDEX 01 01:50:62
  TRACK 83 AUDIO
    TITLE "3:cjc091_1903"
    INDEX 01 01:50:68
  TRACK 84 AUDIO
    TITLE "0:"
    INDEX 01 01:52:22
  TRACK 85 AUDIO
    TITLE "4:cjc091_1904"
    INDEX 01 01:52:38
  TRACK 86 AUDIO
    TITLE "0:"
    INDEX 01 01:57:06
  TRACK 87 AUDIO
    TITLE "2:cjc091_1905"
    INDEX 01 01:58:13
  TRACK 88 AUDIO
    TITLE "0:"
    INDEX 01 01:59:36
  TRACK 89 AUDIO
    TITLE "3:cjc091_1906"
    INDEX 01 01:59:46
  TRACK 90 AUDIO
    TITLE "0:"
    INDEX 01 02:01:58
  TRACK 91 AUDIO
    TITLE "4:cjc091_1907"
    INDEX 01 02:02:01
  TRACK 92 AUDIO
    TITLE "0:"
    INDEX 01 02:05:34
